<svg xmlns="http://www.w3.org/2000/svg" width="1600" height="900" viewBox="0 0 1600 900" role="img"><defs><linearGradient id="bg" x1="0" y1="0" x2="1" y2="1"><stop stop-color="#0F1823"/><stop offset="1" stop-color="#0A1118"/></linearGradient><pattern id="grid" width="40" height="40" patternUnits="userSpaceOnUse"><path d="M40 0H0V40" fill="none" stroke="#2A3A4D" opacity=".45"/></pattern><filter id="shadow"><feDropShadow dx="0" dy="12" stdDeviation="18" flood-color="#000" flood-opacity=".3"/></filter><marker id="arr" viewBox="0 0 10 10" refX="9" refY="5" markerWidth="7" markerHeight="7" orient="auto"><path d="M0 0L10 5L0 10z" fill="#FF7A5C"/></marker><marker id="arrB" viewBox="0 0 10 10" refX="9" refY="5" markerWidth="7" markerHeight="7" orient="auto"><path d="M0 0L10 5L0 10z" fill="#4A7FB5"/></marker></defs><rect width="1600" height="900" fill="url(#bg)"/><rect width="1600" height="900" fill="url(#grid)" opacity=".55"/><g transform="translate(72 54)"><path d="M0 8l16-9 16 9v19l-16 9L0 27zM0 8l16 10 16-10M16 18v18" fill="none" stroke="#FF7A5C" stroke-width="4" stroke-linejoin="round"/><text x="48" y="29" font-family="IBM Plex Sans, Arial, sans-serif" font-size="30" font-weight="500" fill="#E8F0F9">CADsmart</text></g><text x="1528" y="86" font-family="IBM Plex Mono, Consolas, monospace" font-size="19" fill="#FF7A5C" text-anchor="end">PROJEKT POZA EKRANEM CAD · 3/3</text><text x="72" y="160" font-family="IBM Plex Sans, Arial, sans-serif" font-size="52" font-weight="500" fill="#E8F0F9" text-anchor="start"><tspan x="72" dy="0">Tańsza część może tworzyć droższy produkt</tspan></text><path d="M72 282H1528" stroke="#2A3A4D" stroke-width="2"/><path d="M120 505H1480" stroke="#6AA7D5" stroke-width="5"/><path d="M120 505H1480V850H120z" fill="#17334A" opacity=".52"/><g transform="translate(800 355)"><path d="M-220 150L-115-50H115L220 150z" fill="#E8F0F9" opacity=".92"/><text y="62" font-family="IBM Plex Mono, Consolas, monospace" font-size="23" fill="#1A2332" text-anchor="middle">CENA CZĘŚCI</text></g><g transform="translate(800 505)"><path d="M-220 0L-390 290H390L220 0z" fill="#C5D7E7" opacity=".18" stroke="#4A7FB5" stroke-width="3"/><g transform="translate(-210 80)"><circle r="9" fill="#FF7A5C"/><text x="20" y="6" font-family="IBM Plex Mono, Consolas, monospace" font-size="15" fill="#E8F0F9">OPRZYRZĄDOWANIE</text></g><g transform="translate(40 80)"><circle r="9" fill="#FFAA50"/><text x="20" y="6" font-family="IBM Plex Mono, Consolas, monospace" font-size="15" fill="#E8F0F9">CZAS MONTAŻU</text></g><g transform="translate(-210 145)"><circle r="9" fill="#FF7A5C"/><text x="20" y="6" font-family="IBM Plex Mono, Consolas, monospace" font-size="15" fill="#E8F0F9">KONTROLA + TEST</text></g><g transform="translate(40 145)"><circle r="9" fill="#FFAA50"/><text x="20" y="6" font-family="IBM Plex Mono, Consolas, monospace" font-size="15" fill="#E8F0F9">BRAKI + POPRAWKI</text></g><g transform="translate(-210 210)"><circle r="9" fill="#FF7A5C"/><text x="20" y="6" font-family="IBM Plex Mono, Consolas, monospace" font-size="15" fill="#E8F0F9">LOGISTYKA + ZAPAS</text></g><g transform="translate(40 210)"><circle r="9" fill="#FFAA50"/><text x="20" y="6" font-family="IBM Plex Mono, Consolas, monospace" font-size="15" fill="#E8F0F9">SERWIS + ZMIANY</text></g></g><text x="1420" y="480" font-family="IBM Plex Mono, Consolas, monospace" font-size="16" fill="#4A7FB5" text-anchor="end">WIDOCZNE W OFERCIE</text><text x="1420" y="540" font-family="IBM Plex Mono, Consolas, monospace" font-size="16" fill="#B8C7D6" text-anchor="end">KOSZT CAŁEGO ROZWIĄZANIA</text></svg>